<mxfile host="app.diagrams.net" modified="2023-10-01T16:37:00.789Z" agent="Mozilla/5.0 (Windows NT 10.0; Win64; x64) AppleWebKit/537.36 (KHTML, like Gecko) Chrome/117.0.0.0 Safari/537.36" version="22.0.0" etag="BAfRoPY0pgczb3ElUZ_y" type="github">
  <diagram name="페이지-1" id="p6nU3wIyXpmdqAJnokX8">
    <mxGraphModel>
      <root>
        <mxCell id="0" />
        <mxCell id="1" parent="0" />
      </root>
    </mxGraphModel>
  </diagram>
</mxfile>
